<svg width="25" height="24" viewBox="0 0 25 24" fill="none" xmlns="http://www.w3.org/2000/svg">
<path d="M12.7002 18.75C12.2902 18.75 11.9502 18.41 11.9502 18V15C11.9502 14.59 12.2902 14.25 12.7002 14.25C13.1102 14.25 13.4502 14.59 13.4502 15V18C13.4502 18.41 13.1102 18.75 12.7002 18.75Z" fill="#9CA3AF"/>
<path d="M18.3002 22.5601H7.10016C5.28016 22.5601 3.62016 21.1601 3.32016 19.3701L1.99016 11.4001C1.77016 10.1601 2.38016 8.57007 3.37016 7.78007L10.3002 2.23007C11.6402 1.15007 13.7502 1.16007 15.1002 2.24007L22.0302 7.78007C23.0102 8.57007 23.6102 10.1601 23.4102 11.4001L22.0802 19.3601C21.7802 21.1301 20.0802 22.5601 18.3002 22.5601ZM12.6902 2.93007C12.1602 2.93007 11.6302 3.09007 11.2402 3.40007L4.31016 8.96007C3.75016 9.41007 3.35016 10.4501 3.47016 11.1601L4.80016 19.1201C4.98016 20.1701 6.03016 21.0601 7.10016 21.0601H18.3002C19.3702 21.0601 20.4202 20.1701 20.6002 19.1101L21.9302 11.1501C22.0402 10.4501 21.6402 9.39007 21.0902 8.95007L14.1602 3.41007C13.7602 3.09007 13.2202 2.93007 12.6902 2.93007Z" fill="#9CA3AF"/>
</svg>
