<svg width="24" height="24" viewBox="0 0 24 24" fill="none" xmlns="http://www.w3.org/2000/svg">
<path d="M20.0891 18.9108L16.3066 15.1283C17.429 13.7054 17.9653 11.9073 17.8058 10.102C17.6462 8.29674 16.8029 6.62062 15.4484 5.41658C14.0938 4.21253 12.3303 3.57157 10.5188 3.62481C8.70723 3.67805 6.98448 4.42148 5.70296 5.703C4.42144 6.98451 3.67802 8.70727 3.62477 10.5188C3.57153 12.3304 4.21249 14.0938 5.41654 15.4484C6.62058 16.803 8.2967 17.6463 10.102 17.8058C11.9073 17.9654 13.7053 17.4291 15.1283 16.3067L18.9108 20.0892L20.0891 18.9108ZM10.75 16.1667C9.67865 16.1667 8.63139 15.849 7.74062 15.2538C6.84986 14.6586 6.15559 13.8126 5.74561 12.8229C5.33564 11.8331 5.22837 10.744 5.43737 9.69326C5.64638 8.64253 6.16227 7.67737 6.9198 6.91984C7.67733 6.1623 8.64249 5.64642 9.69322 5.43741C10.744 5.22841 11.8331 5.33568 12.8228 5.74565C13.8126 6.15563 14.6586 6.84989 15.2538 7.74066C15.8489 8.63143 16.1666 9.67868 16.1666 10.75C16.1649 12.186 15.5936 13.5628 14.5782 14.5782C13.5627 15.5937 12.186 16.1649 10.75 16.1667Z" fill="#8A8A8E"/>
</svg>
