<?xml version="1.0" encoding="UTF-8"?>
<svg width="1200pt" height="1200pt" version="1.1" viewBox="0 0 1200 1200" xmlns="http://www.w3.org/2000/svg">
 <path d="m616.67 343.02v-13.379l134.71-41.051-134.71-28.223v-2.3281c0-6.1445-4.9688-11.113-11.113-11.113-6.1445 0-11.113 4.9688-11.113 11.113v84.938c1.8594 0 3.6953-0.035156 5.5547-0.035156 5.5977-0.03125 11.117 0.03125 16.672 0.078125z"/>
 <path d="m193.84 367.32 131.87-49.43-136.22-19.715-0.14453-2.3281c-0.38281-6.1328-5.6523-10.777-11.785-10.391-6.1328 0.38281-10.777 5.6523-10.391 11.785l6.4922 103.36c7.0195-2.1133 14.305-4.1641 21.875-6.168z"/>
 <path d="m415.51 274.98 132.27-48.371-136.06-20.809-0.13281-2.3281c-0.33594-6.1328-5.5664-10.824-11.699-10.488-6.1328 0.33594-10.824 5.5664-10.488 11.699l8.5664 156.29c7.3086-0.69531 14.688-1.3438 22.152-1.9688z"/>
 <path d="m411.84 633.52c-50.305-17.074-80.988-39.348-80.988-63.793 0-53.688 147.04-97.211 328.4-97.211 181.37 0 328.4 43.523 328.4 97.211 0 14.207-10.535 27.66-29.039 39.828 111.23-23.074 181.38-56.699 181.38-94.113 0-68.484-232.87-124.09-523.33-126.16-5.543-0.035156-11.074-0.097656-16.668-0.097656-1.8594 0-3.6953 0.023437-5.5547 0.035156-61.078 0.14453-119.7 2.6523-174.32 7.1641-7.4648 0.61328-14.832 1.2734-22.152 1.9688-78.254 7.3789-147.38 18.926-202.43 33.457-7.5703 2.0039-14.855 4.0547-21.875 6.168-71.16 21.371-113.66 48.238-113.66 77.461 0 54.082 146.41 100.25 351.84 118.08z"/>
 <path d="m66.91 613.15 76.523 349.97c17.219 3.7578 35.039 7.3086 53.449 10.645 2.543-84.984 6.9492-174.16 12.434-174.73 0-10.188 8.2578-18.445 18.445-18.445 10.129-1.0781 20.102 14.473 22.262 34.727 3.6602 0 14.965 74.914 27.926 171.25 44.914 6.0469 92.387 10.848 141.79 14.293 3.0586-88.008 7.7539-170.45 13.441-171.06 0-11.891 9.6367-21.527 21.527-21.527 11.82-1.2617 23.449 16.883 25.98 40.523 3.707 0 14.125 65.785 26.688 156.59 30.371 1.0547 61.246 1.668 92.641 1.668 31.391 0 62.27-0.61328 92.641-1.668 12.562-90.805 22.98-156.59 26.688-156.59 2.5195-23.641 14.148-41.785 25.98-40.523 11.891 0 21.527 9.6367 21.527 21.527 5.6875 0.61328 10.379 83.051 13.441 171.06 49.402-3.4453 96.875-8.2422 141.79-14.293 12.961-96.336 24.254-171.25 27.926-171.25 2.1602-20.27 12.133-35.809 22.262-34.727 10.188 0 18.445 8.2578 18.445 18.445 5.4844 0.58984 9.875 89.746 12.434 174.73 18.395-3.3359 36.215-6.8867 53.449-10.645l76.523-349.97c-66.699 43.582-280.05 92.629-533.13 92.676-253.08-0.046875-466.43-49.094-533.09-92.676z"/>
</svg>
